<svg xmlns="http://www.w3.org/2000/svg" width="48" height="48" viewBox="0 0 12.7 12.7"><g style="display:inline"><path style="display:inline;fill:#edf2f7;fill-opacity:1;fill-rule:evenodd;stroke-width:.264583" d="M.012.028H12.73v12.689H.012z"/></g><g style="display:inline"><path style="fill:#4a5568;fill-opacity:1;stroke-width:.644039" d="M5.033 5.201V7.314h.29a2.074 2.132 0 0 1 1.716 2.102 2.074 2.132 0 0 1-.004.096h.026v30.69a2.074 2.155 0 0 1-1.49 1.92h-.51v2.11h15.681v-2.11h-.78a2.074 2.155 0 0 1-1.15-1.929 2.074 2.155 0 0 1 .016-.24h-.017V8.943a2.074 2.132 0 0 1 1.238-1.629h.762V5.201H5.033zm8.524 2.201a1.917 1.97 0 0 1 1.918 1.97 1.917 1.97 0 0 1-.004.134v.006h.027v30.703a1.917 1.991 0 0 1-1.914 1.87 1.917 1.991 0 0 1-1.908-1.82V8.997a1.917 1.97 0 0 1 1.88-1.594z" transform="scale(.26458)"/><circle style="fill:#edf2f7;fill-opacity:1;fill-rule:evenodd;stroke-width:.299047" cx="6.406" cy="4.368" r="3.203"/><circle style="display:inline;fill:#4a5568;fill-opacity:1;fill-rule:evenodd;stroke-width:.262002" cx="6.406" cy="4.368" r="2.806"/></g></svg>